<svg id="Warstwa_1" data-name="Warstwa 1" xmlns="http://www.w3.org/2000/svg" viewBox="0 0 209.5 297.09"><defs><style>.cls-1{fill:#231f20;}</style></defs><title>logo1</title><path class="cls-1" d="M402.87,450.84l-.21-118.42-2.1-1.2h0L398.43,330l-.55-.32h0l-99.52-57L194.23,332.19h0L194,450.84l102.42,58.4h0l2,1.14,2-1.14h0ZM300.45,504.63l.11-111.56,98.11-56.15.19,111.6Zm96.08-171.1L298.32,389.6l-98.17-56.19,98.21-56.07ZM198,448.52l.2-111.6,76.44,43.75,21.66,12.4.12,111.56Z" transform="translate(-193.37 -272.73)"/><path class="cls-1" d="M333.52,341.4l2.07-1.14-6.9-3.8,6.7-3.7L329,329.31l7.28-4-2.09-1.13-7.27,4-5-2.69,7.27-4-2.09-1.13-7.27,4-5.41-2.94,7.27-4-2.09-1.14-7.27,4-5.21-2.83,7.27-4-2.09-1.14-7.27,4-6.33-3.44-6.39,3.57-7.56-4.17-2.06,1.15,7.56,4.16-5.15,2.87-7.55-4.17-2.07,1.15,7.56,4.17-5.34,3-7.56-4.16-2.06,1.14,7.56,4.17-4.9,2.73-7.56-4.17-2.06,1.15,7.56,4.16-6.53,3.64,6,3.42-7.76,4.27,2,1.16,7.75-4.27,5.08,2.9L267.53,345l2,1.16,7.76-4.27,5.27,3-7.76,4.28,2,1.16,7.75-4.27,4.83,2.76-7.75,4.28,2,1.16,7.76-4.27,6.21,3.55,7.25-4,6.89,3.8,2.07-1.15-6.89-3.8,4.92-2.71,6.89,3.8,2.08-1.14-6.9-3.8,5.37-3,6.9,3.8,2.07-1.14-6.9-3.8,5.17-2.85Zm-14.14-2.09h0l-2.07,1.14-5.37,3-2.07,1.14-3.7,2-8.45,4.66-6.21-3.56-4.83-2.76L281.52,342l-2.15-1.23-2-1.17h0l-3.06-1.75-8-4.58,4.52-2.52,4.43-2.46,2.53-1.41,9.47-5.27,5.14-2.87,6.41-3.56,4.23,2.3,5.69,3.08,1.61.88,2.09,1.13h0l5.41,2.94,2.09,1.13,5,2.69,6.36,3.46-8.74,4.82Z" transform="translate(-193.37 -272.73)"/><path class="cls-1" d="M241.31,413.48l-16-26v3.81l16.32,26.49-16.32,10.08v1.61l.33.53,18.73-11.55Z" transform="translate(-193.37 -272.73)"/><polygon class="cls-1" points="75.81 178.39 51.47 163.98 51.47 166.3 75.81 180.71 75.81 178.39"/><path class="cls-1" d="M358.66,384.38l-7.43,4.81c-.64-3.09-.38-5.58.76-7.41,1.24-2,3.24-2.79,5.55-3.7a18.58,18.58,0,0,0,7.51-4.64,17.14,17.14,0,0,0,4.12-8.47l-2.39,1.33a14.47,14.47,0,0,1-3.2,5.79,16.8,16.8,0,0,1-6.78,4.13c-2.53,1-4.92,1.95-6.51,4.5s-1.79,5.68-.84,9.62l-5.84,3.78V402l-17.39,9.45V421l17.39-9.67v6.38l6.53-4v7.15l2-1.08v-7.28l6.52-4v-6.14l14.87-8.14v-9.23l-14.87,8.07ZM343.61,409l-15.39,8.56v-5l15.39-8.36Zm13.05-14.81v13.22l-11.05,6.7V395.21l11.05-7.16Zm14.87-5.8v4.68l-12.87,7.05v-4.74Z" transform="translate(-193.37 -272.73)"/><path class="cls-1" d="M365.69,454.65l-35.15,19.63a2.56,2.56,0,0,1-3.82-2.24v-1a2.57,2.57,0,0,1,1.32-2.25l35.35-19.67h0l7.78-4.33a4.58,4.58,0,0,0,2.35-4v-1a4.58,4.58,0,0,0-6.81-4l-35.35,19.75h0l-.81.45a2.56,2.56,0,0,1-3.82-2.24v-1a2.58,2.58,0,0,1,1.32-2.25l21.81-12.13a4.58,4.58,0,0,0,2.35-4l-.07-7.54h0l-2,1.11.06,5.46v1a2.59,2.59,0,0,1-1.32,2.25l-10.78,6h0l-11,6.13a4.59,4.59,0,0,0-2.34,4v1a4.59,4.59,0,0,0,4.57,4.58,4.59,4.59,0,0,0,2.23-.59L366.87,438h0l.81-.46a2.53,2.53,0,0,1,2.55,0,2.56,2.56,0,0,1,1.28,2.22v1a2.56,2.56,0,0,1-1.33,2.24l-35.35,19.67v0l-7.78,4.32a4.59,4.59,0,0,0-2.34,4v1A4.52,4.52,0,0,0,327,476a4.52,4.52,0,0,0,4.55,0l34.17-19.09Z" transform="translate(-193.37 -272.73)"/><path class="cls-1" d="M197.18,569.2V545.64h-3.81v-3.76h3.81v-1.32c0-3.86.89-7.34,3.18-9.58a9.52,9.52,0,0,1,6.64-2.52,10.9,10.9,0,0,1,4.25.8l-.66,3.82a7.62,7.62,0,0,0-3.19-.62c-4.2,0-5.3,3.72-5.3,7.94v1.48h6.6v3.76h-6.57V569.2Z" transform="translate(-193.37 -272.73)"/><path class="cls-1" d="M215.24,556.43c.1,6.72,4.36,9.49,9.35,9.49a18.42,18.42,0,0,0,7.57-1.4l.87,3.53a21.92,21.92,0,0,1-9.11,1.74c-8.4,0-13.45-5.59-13.45-13.79s4.88-14.75,12.86-14.75c8.91,0,11.24,7.82,11.24,12.85a12.1,12.1,0,0,1-.17,2.33Zm14.55-3.57c.05-3.13-1.29-8-6.86-8-5.07,0-7.23,4.58-7.63,8Z" transform="translate(-193.37 -272.73)"/><path class="cls-1" d="M243.55,556.43c.1,6.72,4.36,9.49,9.35,9.49a18.45,18.45,0,0,0,7.57-1.4l.87,3.53a22,22,0,0,1-9.12,1.74c-8.4,0-13.44-5.59-13.44-13.79s4.87-14.75,12.85-14.75c8.92,0,11.25,7.82,11.25,12.85a12.1,12.1,0,0,1-.17,2.33Zm14.54-3.57c.05-3.13-1.28-8-6.85-8-5.08,0-7.24,4.58-7.63,8Z" transform="translate(-193.37 -272.73)"/><path class="cls-1" d="M271,541.88l3.68,13.86c.78,3,1.48,5.91,2,8.72h.13c.61-2.75,1.52-5.72,2.45-8.68l4.47-13.9H288l4.25,13.66c1,3.24,1.78,6.14,2.41,8.92h.14c.49-2.77,1.23-5.65,2.12-8.87l3.9-13.71h4.9l-8.83,27.32h-4.51l-4.16-13a85.82,85.82,0,0,1-2.42-9h-.11a81.32,81.32,0,0,1-2.5,9.05l-4.4,13H274.2L266,541.88Z" transform="translate(-193.37 -272.73)"/><path class="cls-1" d="M307.27,566.28a3.36,3.36,0,0,1,3.37-3.59,3.57,3.57,0,1,1-3.37,3.59Z" transform="translate(-193.37 -272.73)"/><path class="cls-1" d="M343.73,529.08v33.07c0,2.43.1,5.16.23,7.05h-4.42l-.25-4.73h-.13a10,10,0,0,1-9.27,5.35c-6.63,0-11.73-5.6-11.73-13.88-.05-9.14,5.62-14.69,12.28-14.69,4.19,0,7,2,8.24,4.15h.11V529.08ZM338.79,553a10.23,10.23,0,0,0-.21-2.12,7.34,7.34,0,0,0-7.19-5.72c-5.15,0-8.23,4.51-8.23,10.52,0,5.55,2.77,10.16,8.13,10.16a7.51,7.51,0,0,0,7.26-6,8.37,8.37,0,0,0,.24-2.13Z" transform="translate(-193.37 -272.73)"/><path class="cls-1" d="M354.8,556.43c.09,6.72,4.36,9.49,9.35,9.49a18.36,18.36,0,0,0,7.56-1.4l.88,3.53a22,22,0,0,1-9.12,1.74c-8.4,0-13.45-5.59-13.45-13.79s4.88-14.75,12.86-14.75c8.92,0,11.25,7.82,11.25,12.85a12.1,12.1,0,0,1-.17,2.33Zm14.54-3.57c.05-3.13-1.28-8-6.85-8-5.08,0-7.24,4.58-7.63,8Z" transform="translate(-193.37 -272.73)"/><path class="cls-1" d="M382.23,541.88l5.36,15.32c.92,2.53,1.63,4.78,2.24,7H390c.62-2.27,1.41-4.54,2.29-7l5.34-15.32h5.2L392.06,569.2h-4.74l-10.41-27.32Z" transform="translate(-193.37 -272.73)"/></svg>