<svg id="Warstwa_1" data-name="Warstwa 1" xmlns="http://www.w3.org/2000/svg" viewBox="0 0 447.34 237.65"><defs><style>.cls-1{fill:#231f20;}</style></defs><title>logo2</title><path class="cls-1" d="M283.3,480.57l-.21-118.43L281,361h0l-2.13-1.22-.54-.31h0l-99.53-57L74.66,361.91h0l-.21,118.66L176.87,539h0l2,1.14,2-1.14h0ZM180.88,534.35,181,422.79l98.11-56.15.19,111.6ZM277,363.25l-98.21,56.08L80.58,363.14l98.21-56.08Zm-198.51,115,.2-111.6,76.44,43.75,21.66,12.4.12,111.56Z" transform="translate(-74.45 -302.45)"/><path class="cls-1" d="M214,371.12,216,370l-6.9-3.8,6.7-3.69L209.46,359l7.27-4-2.09-1.14-7.27,4-5-2.69,7.27-4-2.09-1.13-7.27,4-5.41-2.93,7.27-4L200.09,346l-7.27,4-5.21-2.83,7.27-4L192.79,342l-7.27,4-6.32-3.43-6.4,3.56L165.24,342c-.68.39-1.37.77-2.06,1.15l7.56,4.17-5.14,2.86L158,346,156,347.16l7.55,4.17-5.34,3-7.56-4.16-2.06,1.15,7.56,4.16-4.9,2.73L143.67,354c-.68.39-1.37.77-2.06,1.15l7.56,4.17L142.64,363l6,3.42-7.75,4.27,2,1.17,7.76-4.28,5.07,2.91L148,374.72l2,1.16,7.76-4.27,5.27,3-7.75,4.27,2,1.16,7.76-4.27,4.83,2.76-7.76,4.28,2,1.16,7.76-4.27,6.21,3.55,7.25-4,6.9,3.8,2.07-1.14-6.9-3.8,4.92-2.72,6.9,3.8,2.07-1.14-6.9-3.8,5.37-3,6.9,3.8,2.07-1.15-6.9-3.8,5.17-2.85ZM199.81,369h0l-2.07,1.15-5.37,3-2.07,1.14-3.7,2L178.15,381l-6.21-3.56-4.83-2.76-5.16-3-2.15-1.23-2-1.16h0l-3.06-1.75-8-4.58,4.53-2.53,4.42-2.46,2.53-1.41,9.47-5.27,5.15-2.87,6.4-3.56,4.23,2.3,5.69,3.09,1.61.87,2.09,1.13h0l5.41,2.94,2.09,1.13,5,2.7,6.36,3.45-8.74,4.82Z" transform="translate(-74.45 -302.45)"/><path class="cls-1" d="M121.74,443.2l-16-26V421L122,447.51l-16.32,10.07v1.61l.33.53,18.73-11.55Z" transform="translate(-74.45 -302.45)"/><polygon class="cls-1" points="75.16 178.39 50.82 163.98 50.82 166.3 75.16 180.71 75.16 178.39"/><path class="cls-1" d="M239.09,414.1l-7.43,4.81c-.64-3.09-.38-5.58.76-7.41,1.24-2,3.24-2.78,5.55-3.7a18.66,18.66,0,0,0,7.51-4.63,17.09,17.09,0,0,0,4.12-8.48L247.21,396a14.57,14.57,0,0,1-3.19,5.79,16.78,16.78,0,0,1-6.79,4.13c-2.53,1-4.92,1.95-6.51,4.5s-1.79,5.68-.84,9.63L224,423.85v7.86l-17.39,9.44v9.58L224,441.05v6.38l6.53-4v7.16l2-1.09v-7.28l6.52-4v-6.14L254,424V414.8l-14.87,8.06ZM224,438.76l-15.39,8.57v-5L224,434ZM237.09,424v13.22L226,443.88V424.93l11.05-7.15ZM252,418.16v4.68l-12.87,7v-4.74Z" transform="translate(-74.45 -302.45)"/><path class="cls-1" d="M246.12,484.37,211,504a2.56,2.56,0,0,1-3.82-2.24v-1a2.58,2.58,0,0,1,1.32-2.25l35.35-19.66v0l7.78-4.33a4.56,4.56,0,0,0,2.35-4v-1a4.58,4.58,0,0,0-6.81-4l-35.35,19.75h0l-.82.46a2.57,2.57,0,0,1-3.82-2.25v-1a2.55,2.55,0,0,1,1.32-2.24l21.81-12.14a4.58,4.58,0,0,0,2.35-4l-.07-7.53h0l-2,1.1.06,5.46v1a2.57,2.57,0,0,1-1.32,2.25l-10.78,6h0l-11,6.14a4.56,4.56,0,0,0-2.35,4v1a4.6,4.6,0,0,0,4.57,4.58,4.59,4.59,0,0,0,2.23-.59l35.35-19.75h0l.81-.45a2.57,2.57,0,0,1,3.83,2.24v1a2.6,2.6,0,0,1-1.32,2.25l-35.36,19.66v0l-7.77,4.33a4.56,4.56,0,0,0-2.35,4v1a4.6,4.6,0,0,0,4.57,4.58,4.59,4.59,0,0,0,2.23-.59l34.17-19.09Z" transform="translate(-74.45 -302.45)"/><path class="cls-1" d="M316.16,445.83V422.27h-3.82V418.5h3.82v-1.31c0-3.86.88-7.34,3.17-9.58a9.54,9.54,0,0,1,6.65-2.52,10.8,10.8,0,0,1,4.24.8l-.66,3.82a7.59,7.59,0,0,0-3.19-.62c-4.19,0-5.29,3.72-5.29,7.93v1.48h6.6v3.77H321.1v23.56Z" transform="translate(-74.45 -302.45)"/><path class="cls-1" d="M334.22,433.06c.09,6.72,4.36,9.49,9.35,9.49a18.45,18.45,0,0,0,7.57-1.4l.87,3.53a22,22,0,0,1-9.12,1.74c-8.4,0-13.45-5.59-13.45-13.79s4.88-14.75,12.86-14.75c8.92,0,11.25,7.82,11.25,12.85a12.1,12.1,0,0,1-.17,2.33Zm14.54-3.57c.05-3.13-1.28-8.05-6.85-8.05-5.08,0-7.24,4.59-7.63,8.05Z" transform="translate(-74.45 -302.45)"/><path class="cls-1" d="M362.52,433.06c.1,6.72,4.36,9.49,9.35,9.49a18.38,18.38,0,0,0,7.57-1.4l.87,3.53a21.88,21.88,0,0,1-9.11,1.74c-8.4,0-13.45-5.59-13.45-13.79s4.88-14.75,12.86-14.75c8.91,0,11.24,7.82,11.24,12.85a11.34,11.34,0,0,1-.17,2.33Zm14.55-3.57c.05-3.13-1.28-8.05-6.86-8.05-5.07,0-7.23,4.59-7.63,8.05Z" transform="translate(-74.45 -302.45)"/><path class="cls-1" d="M390,418.5l3.67,13.87c.79,3.05,1.48,5.91,2,8.72h.14c.61-2.75,1.51-5.72,2.45-8.68l4.46-13.91h4.18l4.25,13.67c1,3.24,1.78,6.14,2.42,8.92h.13c.5-2.77,1.23-5.65,2.12-8.88l3.9-13.71h4.9l-8.82,27.33H411.3l-4.15-13a81.79,81.79,0,0,1-2.42-9h-.12a79.21,79.21,0,0,1-2.5,9.05l-4.39,13h-4.55l-8.23-27.33Z" transform="translate(-74.45 -302.45)"/><path class="cls-1" d="M426.25,442.91a3.36,3.36,0,0,1,3.37-3.59,3.57,3.57,0,1,1-3.37,3.59Z" transform="translate(-74.45 -302.45)"/><path class="cls-1" d="M462.71,405.71v33.07c0,2.43.09,5.16.22,7.05h-4.41l-.26-4.73h-.13a10,10,0,0,1-9.27,5.35c-6.62,0-11.73-5.6-11.73-13.88,0-9.14,5.63-14.69,12.28-14.69,4.2,0,7,2,8.24,4.15h.12V405.71Zm-4.94,23.91a10.16,10.16,0,0,0-.21-2.12,7.34,7.34,0,0,0-7.2-5.72c-5.14,0-8.22,4.51-8.22,10.52,0,5.55,2.76,10.16,8.12,10.16a7.5,7.5,0,0,0,7.26-6,7.93,7.93,0,0,0,.25-2.13Z" transform="translate(-74.45 -302.45)"/><path class="cls-1" d="M473.77,433.06c.1,6.72,4.36,9.49,9.35,9.49a18.42,18.42,0,0,0,7.57-1.4l.87,3.53a21.94,21.94,0,0,1-9.12,1.74c-8.39,0-13.44-5.59-13.44-13.79s4.88-14.75,12.86-14.75c8.91,0,11.24,7.82,11.24,12.85a12.1,12.1,0,0,1-.17,2.33Zm14.55-3.57c0-3.13-1.29-8.05-6.86-8.05-5.07,0-7.23,4.59-7.63,8.05Z" transform="translate(-74.45 -302.45)"/><path class="cls-1" d="M501.21,418.5l5.36,15.32c.92,2.54,1.63,4.79,2.24,7.06H509c.63-2.27,1.41-4.54,2.29-7.06l5.35-15.32h5.19L511,445.83h-4.74l-10.4-27.33Z" transform="translate(-74.45 -302.45)"/></svg>