<?xml version="1.0" encoding="utf-8"?>
<!-- Generator: Adobe Illustrator 23.1.0, SVG Export Plug-In . SVG Version: 6.00 Build 0)  -->
<svg version="1.1" id="Warstwa_1" xmlns="http://www.w3.org/2000/svg" xmlns:xlink="http://www.w3.org/1999/xlink" x="0px" y="0px"
	 viewBox="0 0 595.28 841.89" style="enable-background:new 0 0 595.28 841.89;" xml:space="preserve">
<style type="text/css">
	.st0{fill:#FFFFFF;}
</style>
<path class="st0" d="M281.54,480.57l-0.21-118.42c-0.7-0.4-1.4-0.8-2.1-1.2l0,0l-2.13-1.22c-0.18-0.1-0.36-0.21-0.55-0.31v0
	l-99.52-56.96L72.9,361.91c0,0,0,0,0,0l-0.21,118.66l102.42,58.39v0c0.67,0.38,1.33,0.76,2,1.14c0.67-0.38,1.33-0.76,2-1.14v0
	L281.54,480.57z M179.12,534.35l0.12-111.56l98.1-56.15l0.2,111.6L179.12,534.35z M275.2,363.25l-98.21,56.08l-98.17-56.19
	l98.21-56.08L275.2,363.25z M76.69,478.24l0.2-111.6l76.44,43.75l21.66,12.4l0.12,111.56L76.69,478.24z"/>
<path class="st0" d="M212.19,371.12c0.69-0.38,1.38-0.76,2.07-1.14l-6.9-3.8l6.7-3.69l-6.36-3.45l7.27-4.01
	c-0.7-0.38-1.39-0.76-2.09-1.13l-7.27,4.01l-4.96-2.69l7.27-4.01c-0.7-0.38-1.39-0.76-2.09-1.13l-7.27,4.01l-5.41-2.94l7.27-4.01
	c-0.7-0.38-1.39-0.76-2.09-1.13l-7.27,4.01l-5.21-2.83l7.27-4.01c-0.7-0.38-1.39-0.76-2.09-1.13l-7.27,4.01l-6.33-3.43l-6.4,3.56
	l-7.56-4.16c-0.69,0.38-1.37,0.77-2.06,1.15l7.56,4.16l-5.14,2.86l-7.56-4.16c-0.69,0.38-1.37,0.77-2.06,1.15l7.56,4.16l-5.35,2.98
	l-7.56-4.16c-0.69,0.38-1.37,0.77-2.06,1.15l7.56,4.16l-4.9,2.73l-7.56-4.16c-0.69,0.38-1.37,0.77-2.06,1.15l7.56,4.16l-6.53,3.64
	l5.97,3.42l-7.76,4.27c0.68,0.39,1.36,0.78,2.03,1.16l7.76-4.27l5.07,2.9l-7.76,4.27c0.68,0.39,1.36,0.78,2.03,1.16l7.76-4.27
	l5.27,3.02l-7.76,4.27c0.68,0.39,1.36,0.78,2.03,1.16l7.76-4.27l4.83,2.76l-7.76,4.27c0.68,0.39,1.36,0.78,2.03,1.16l7.76-4.27
	l6.21,3.56l7.25-4l6.9,3.8c0.69-0.38,1.38-0.76,2.07-1.14l-6.9-3.8l4.92-2.71l6.9,3.8c0.69-0.38,1.38-0.76,2.07-1.14l-6.9-3.8
	l5.37-2.96l6.9,3.8c0.69-0.38,1.38-0.76,2.07-1.14l-6.9-3.8l5.17-2.85L212.19,371.12z M198.05,369.03L198.05,369.03
	c-0.69,0.38-1.38,0.76-2.07,1.14l-5.37,2.96c-0.69,0.38-1.38,0.76-2.07,1.14l-3.69,2.04c-2.82,1.55-5.63,3.11-8.45,4.66
	c-2.07-1.19-4.14-2.37-6.21-3.56l-4.83-2.76c-1.72-0.98-3.44-1.97-5.16-2.95l-2.15-1.23c-0.68-0.39-1.36-0.78-2.03-1.16h0
	l-3.06-1.75c-2.67-1.53-5.34-3.05-8-4.58l4.53-2.52c1.47-0.82,2.95-1.64,4.42-2.46l2.53-1.41c3.16-1.76,6.31-3.51,9.47-5.27
	l5.14-2.86c2.13-1.19,4.27-2.38,6.4-3.57l4.23,2.3c1.9,1.03,3.79,2.06,5.69,3.09l1.61,0.87c0.7,0.38,1.39,0.76,2.09,1.13h0
	l5.41,2.94c0.7,0.38,1.39,0.76,2.09,1.13l4.96,2.69c2.12,1.15,4.24,2.3,6.36,3.45c-2.92,1.61-5.83,3.22-8.75,4.82L198.05,369.03z"/>
<path class="st0" d="M119.98,443.2l-16.03-26v3.81l16.33,26.49l-16.33,10.07v1.61l0.33,0.54l18.73-11.55
	C122.01,446.52,120.99,444.86,119.98,443.2z"/>
<polygon class="st0" points="147.85,480.84 123.5,466.43 123.5,468.75 147.85,483.16 "/>
<path class="st0" d="M237.33,414.1l-7.44,4.82c-0.63-3.09-0.38-5.58,0.76-7.41c1.24-1.99,3.24-2.79,5.55-3.7
	c2.39-0.95,5.1-2.02,7.52-4.63c2.06-2.23,3.45-5.08,4.12-8.47l-2.39,1.33c-0.68,2.27-1.74,4.21-3.19,5.79
	c-2.1,2.28-4.48,3.22-6.78,4.13c-2.53,1-4.92,1.95-6.51,4.5c-1.52,2.43-1.79,5.67-0.84,9.62l-5.84,3.78v7.86l-17.39,9.45v9.57
	l17.39-9.68v6.38l6.53-3.96v7.16l2-1.09v-7.28l6.53-3.96v-6.14l14.87-8.14v-9.22l-14.87,8.07V414.1z M222.28,438.76l-15.39,8.56
	v-4.98l15.39-8.36V438.76z M235.33,423.95v9.31v3.92l-11.05,6.7v-3.94v-9.32v-5.69l11.05-7.16V423.95z M250.2,418.16v4.68
	l-12.87,7.05v-4.74L250.2,418.16z"/>
<path class="st0" d="M244.36,484.37L209.21,504c-0.81,0.45-1.76,0.44-2.56-0.03c-0.8-0.47-1.27-1.3-1.27-2.22v-0.98
	c0-0.93,0.51-1.8,1.32-2.25l35.35-19.67l-0.01-0.01l7.78-4.33c1.45-0.81,2.35-2.34,2.35-4v-0.98c0-1.64-0.84-3.12-2.26-3.94
	c-1.41-0.83-3.11-0.85-4.54-0.05l-35.35,19.75l0,0l-0.81,0.45c-0.81,0.45-1.76,0.44-2.56-0.03s-1.27-1.3-1.27-2.22v-0.98
	c0-0.93,0.51-1.8,1.32-2.25l21.81-12.13c1.45-0.81,2.35-2.34,2.35-4l-0.07-7.54l-0.01,0l-1.98,1.1l0.06,5.46v0.98
	c0,0.93-0.51,1.79-1.32,2.25l-10.78,6l0,0l-11.04,6.14c-1.45,0.81-2.35,2.34-2.35,4v0.98c0,1.64,0.84,3.12,2.26,3.94
	c0.72,0.42,1.52,0.64,2.31,0.64c0.76,0,1.53-0.2,2.23-0.59l35.35-19.75l0,0l0.81-0.45c0.81-0.45,1.76-0.44,2.56,0.03
	c0.8,0.47,1.27,1.3,1.27,2.22v0.98c0,0.93-0.51,1.79-1.32,2.25l-35.35,19.67l0.01,0.02l-7.78,4.33c-1.45,0.81-2.35,2.34-2.35,4v0.98
	c0,1.64,0.84,3.11,2.26,3.94c0.72,0.42,1.52,0.64,2.31,0.64c0.76,0,1.53-0.2,2.23-0.59l34.17-19.09V484.37z"/>
<path d="M279.92,365.7"/>
<g>
	<path class="st0" d="M317.92,443.32v-23.56h-3.81V416h3.81v-1.32c0-3.85,0.89-7.34,3.18-9.57c1.86-1.8,4.36-2.52,6.64-2.52
		c1.8,0,3.29,0.38,4.25,0.8l-0.66,3.82c-0.76-0.33-1.73-0.62-3.19-0.62c-4.2,0-5.3,3.72-5.3,7.94V416h6.6v3.76h-6.58v23.56H317.92z"
		/>
	<path class="st0" d="M335.98,430.56c0.1,6.72,4.36,9.49,9.35,9.49c3.56,0,5.73-0.64,7.57-1.4l0.87,3.53
		c-1.74,0.79-4.78,1.74-9.12,1.74c-8.4,0-13.45-5.59-13.45-13.79c0-8.28,4.88-14.75,12.86-14.75c8.92,0,11.25,7.82,11.25,12.85
		c0,1.04-0.06,1.79-0.17,2.33H335.98z M350.52,426.98c0.05-3.13-1.28-8.04-6.85-8.04c-5.07,0-7.23,4.59-7.63,8.04H350.52z"/>
	<path class="st0" d="M364.28,430.56c0.1,6.72,4.36,9.49,9.35,9.49c3.56,0,5.73-0.64,7.57-1.4l0.87,3.53
		c-1.74,0.79-4.78,1.74-9.12,1.74c-8.4,0-13.45-5.59-13.45-13.79c0-8.28,4.88-14.75,12.86-14.75c8.92,0,11.25,7.82,11.25,12.85
		c0,1.04-0.06,1.79-0.17,2.33H364.28z M378.83,426.98c0.05-3.13-1.28-8.04-6.85-8.04c-5.07,0-7.23,4.59-7.63,8.04H378.83z"/>
	<path class="st0" d="M391.75,416l3.67,13.87c0.79,3.05,1.48,5.91,2.03,8.72h0.14c0.61-2.75,1.51-5.72,2.45-8.68L404.5,416h4.18
		l4.25,13.67c0.98,3.24,1.78,6.14,2.41,8.92h0.13c0.5-2.77,1.23-5.65,2.12-8.88l3.9-13.71h4.9l-8.83,27.33h-4.51l-4.15-13.04
		c-0.99-3.06-1.76-5.8-2.42-9.01h-0.11c-0.69,3.3-1.54,6.13-2.5,9.05l-4.39,13h-4.54L386.7,416H391.75z"/>
	<path class="st0" d="M428.01,440.4c0-2.09,1.4-3.59,3.37-3.59c2,0,3.32,1.48,3.34,3.59c0,1.99-1.32,3.54-3.37,3.54
		C429.37,443.94,427.98,442.39,428.01,440.4z"/>
	<path class="st0" d="M464.47,403.2v33.07c0,2.43,0.09,5.16,0.23,7.05h-4.42l-0.25-4.73h-0.13c-1.52,3.05-4.81,5.35-9.27,5.35
		c-6.62,0-11.73-5.6-11.73-13.88c-0.04-9.13,5.62-14.69,12.28-14.69c4.2,0,7.02,1.97,8.24,4.15h0.11V403.2H464.47z M459.53,427.11
		c0-0.65-0.06-1.47-0.21-2.12c-0.77-3.13-3.45-5.72-7.2-5.72c-5.15,0-8.22,4.51-8.22,10.52c0,5.55,2.76,10.16,8.12,10.16
		c3.33,0,6.35-2.25,7.26-5.97c0.18-0.65,0.24-1.35,0.24-2.13V427.11z"/>
	<path class="st0" d="M475.53,430.56c0.1,6.72,4.36,9.49,9.35,9.49c3.56,0,5.73-0.64,7.57-1.4l0.87,3.53
		c-1.74,0.79-4.78,1.74-9.12,1.74c-8.4,0-13.45-5.59-13.45-13.79c0-8.28,4.88-14.75,12.86-14.75c8.92,0,11.25,7.82,11.25,12.85
		c0,1.04-0.06,1.79-0.17,2.33H475.53z M490.08,426.98c0.05-3.13-1.28-8.04-6.85-8.04c-5.07,0-7.23,4.59-7.63,8.04H490.08z"/>
	<path class="st0" d="M502.97,416l5.36,15.32c0.92,2.53,1.63,4.79,2.24,7.06h0.15c0.63-2.27,1.41-4.54,2.29-7.06l5.35-15.32h5.2
		l-10.75,27.33h-4.74L497.65,416H502.97z"/>
</g>
</svg>
