<?xml version="1.0" encoding="UTF-8" standalone="no"?>
<!DOCTYPE svg PUBLIC "-//W3C//DTD SVG 20010904//EN"
              "http://www.w3.org/TR/2001/REC-SVG-20010904/DTD/svg10.dtd">

<svg xmlns="http://www.w3.org/2000/svg"
     width="5.55556in" height="2.44444in"
     viewBox="0 0 500 220">
  <path id="Zaznaczenie"
        fill="none" stroke="black" stroke-width="1"
        d="M 0.00,0.00
           C 0.00,0.00 166.00,0.00 166.00,0.00
             166.00,0.00 166.00,220.00 166.00,220.00
             166.00,220.00 0.00,220.00 0.00,220.00
             0.00,220.00 0.00,0.00 0.00,0.00 Z
           M 167.00,0.00
           C 167.00,0.00 277.00,0.00 277.00,0.00
             277.00,0.00 277.00,220.00 277.00,220.00
             277.00,220.00 167.00,220.00 167.00,220.00
             167.00,220.00 167.00,0.00 167.00,0.00 Z
           M 278.00,0.00
           C 278.00,0.00 333.00,0.00 333.00,0.00
             333.00,0.00 333.00,220.00 333.00,220.00
             333.00,220.00 278.00,220.00 278.00,220.00
             278.00,220.00 278.00,0.00 278.00,0.00 Z
           M 334.00,0.00
           C 334.00,0.00 444.00,0.00 444.00,0.00
             444.00,0.00 444.00,220.00 444.00,220.00
             444.00,220.00 334.00,220.00 334.00,220.00
             334.00,220.00 334.00,0.00 334.00,0.00 Z
           M 445.00,0.00
           C 445.00,0.00 500.00,0.00 500.00,0.00
             500.00,0.00 500.00,220.00 500.00,220.00
             500.00,220.00 445.00,220.00 445.00,220.00
             445.00,220.00 445.00,0.00 445.00,0.00 Z" />
</svg>
